G04 #@! TF.GenerationSoftware,KiCad,Pcbnew,(6.0.11)*
G04 #@! TF.CreationDate,2024-06-07T20:39:17+02:00*
G04 #@! TF.ProjectId,z80-dot-gal,7a38302d-646f-4742-9d67-616c2e6b6963,rev?*
G04 #@! TF.SameCoordinates,Original*
G04 #@! TF.FileFunction,Copper,L2,Bot*
G04 #@! TF.FilePolarity,Positive*
%FSLAX46Y46*%
G04 Gerber Fmt 4.6, Leading zero omitted, Abs format (unit mm)*
G04 Created by KiCad (PCBNEW (6.0.11)) date 2024-06-07 20:39:17*
%MOMM*%
%LPD*%
G01*
G04 APERTURE LIST*
G04 #@! TA.AperFunction,ComponentPad*
%ADD10C,1.600000*%
G04 #@! TD*
G04 #@! TA.AperFunction,ComponentPad*
%ADD11R,1.700000X1.700000*%
G04 #@! TD*
G04 #@! TA.AperFunction,ComponentPad*
%ADD12O,1.700000X1.700000*%
G04 #@! TD*
G04 #@! TA.AperFunction,ComponentPad*
%ADD13R,1.600000X1.600000*%
G04 #@! TD*
G04 #@! TA.AperFunction,ComponentPad*
%ADD14O,1.600000X1.600000*%
G04 #@! TD*
G04 #@! TA.AperFunction,ComponentPad*
%ADD15R,2.400000X1.600000*%
G04 #@! TD*
G04 #@! TA.AperFunction,ComponentPad*
%ADD16O,2.400000X1.600000*%
G04 #@! TD*
G04 #@! TA.AperFunction,ViaPad*
%ADD17C,0.800000*%
G04 #@! TD*
G04 #@! TA.AperFunction,Conductor*
%ADD18C,0.250000*%
G04 #@! TD*
G04 APERTURE END LIST*
D10*
X121920000Y-129794000D03*
X116920000Y-129794000D03*
D11*
X116840000Y-81788000D03*
D12*
X116840000Y-84328000D03*
X116840000Y-98425000D03*
D11*
X116840000Y-95885000D03*
D13*
X142753000Y-125994000D03*
D14*
X140213000Y-125994000D03*
X137673000Y-125994000D03*
X135133000Y-125994000D03*
X132593000Y-125994000D03*
X130053000Y-125994000D03*
X127513000Y-125994000D03*
X127513000Y-133614000D03*
X130053000Y-133614000D03*
X132593000Y-133614000D03*
X135133000Y-133614000D03*
X137673000Y-133614000D03*
X140213000Y-133614000D03*
X142753000Y-133614000D03*
D11*
X116840000Y-115839000D03*
D12*
X116840000Y-118379000D03*
X116840000Y-120919000D03*
X117333000Y-133604000D03*
X119873000Y-133604000D03*
D11*
X122413000Y-133604000D03*
D15*
X127508000Y-74422000D03*
D16*
X127508000Y-76962000D03*
X127508000Y-79502000D03*
X127508000Y-82042000D03*
X127508000Y-84582000D03*
X127508000Y-87122000D03*
X127508000Y-89662000D03*
X127508000Y-92202000D03*
X127508000Y-94742000D03*
X127508000Y-97282000D03*
X127508000Y-99822000D03*
X127508000Y-102362000D03*
X127508000Y-104902000D03*
X127508000Y-107442000D03*
X127508000Y-109982000D03*
X127508000Y-112522000D03*
X127508000Y-115062000D03*
X127508000Y-117602000D03*
X127508000Y-120142000D03*
X127508000Y-122682000D03*
X142748000Y-122682000D03*
X142748000Y-120142000D03*
X142748000Y-117602000D03*
X142748000Y-115062000D03*
X142748000Y-112522000D03*
X142748000Y-109982000D03*
X142748000Y-107442000D03*
X142748000Y-104902000D03*
X142748000Y-102362000D03*
X142748000Y-99822000D03*
X142748000Y-97282000D03*
X142748000Y-94742000D03*
X142748000Y-92202000D03*
X142748000Y-89662000D03*
X142748000Y-87122000D03*
X142748000Y-84582000D03*
X142748000Y-82042000D03*
X142748000Y-79502000D03*
X142748000Y-76962000D03*
X142748000Y-74422000D03*
D14*
X143002000Y-70358000D03*
X140462000Y-70358000D03*
X137922000Y-70358000D03*
X135382000Y-70358000D03*
X132842000Y-70358000D03*
X130302000Y-70358000D03*
X127762000Y-70358000D03*
X125222000Y-70358000D03*
X122682000Y-70358000D03*
X120142000Y-70358000D03*
X117602000Y-70358000D03*
X115062000Y-70358000D03*
X115062000Y-62738000D03*
X117602000Y-62738000D03*
X120142000Y-62738000D03*
X122682000Y-62738000D03*
X125222000Y-62738000D03*
X127762000Y-62738000D03*
X130302000Y-62738000D03*
X132842000Y-62738000D03*
X135382000Y-62738000D03*
X137922000Y-62738000D03*
X140462000Y-62738000D03*
D13*
X143002000Y-62738000D03*
D15*
X120645000Y-74422000D03*
D16*
X120645000Y-76962000D03*
X120645000Y-79502000D03*
X120645000Y-82042000D03*
X120645000Y-84582000D03*
X120645000Y-87122000D03*
X120645000Y-89662000D03*
X120645000Y-92202000D03*
X120645000Y-94742000D03*
X120645000Y-97282000D03*
X120645000Y-99822000D03*
X120645000Y-102362000D03*
X120645000Y-104902000D03*
X120645000Y-107442000D03*
X120645000Y-109982000D03*
X120645000Y-112522000D03*
X120645000Y-115062000D03*
X120645000Y-117602000D03*
X120645000Y-120142000D03*
X120645000Y-122682000D03*
X135885000Y-122682000D03*
X135885000Y-120142000D03*
X135885000Y-117602000D03*
X135885000Y-115062000D03*
X135885000Y-112522000D03*
X135885000Y-109982000D03*
X135885000Y-107442000D03*
X135885000Y-104902000D03*
X135885000Y-102362000D03*
X135885000Y-99822000D03*
X135885000Y-97282000D03*
X135885000Y-94742000D03*
X135885000Y-92202000D03*
X135885000Y-89662000D03*
X135885000Y-87122000D03*
X135885000Y-84582000D03*
X135885000Y-82042000D03*
X135885000Y-79502000D03*
X135885000Y-76962000D03*
X135885000Y-74422000D03*
D10*
X124714000Y-125984000D03*
D14*
X114554000Y-125984000D03*
D10*
X116840000Y-102235000D03*
D14*
X116840000Y-112395000D03*
D17*
X125130200Y-123416200D03*
X126753400Y-124753400D03*
X140246900Y-76577200D03*
X139151700Y-73826000D03*
X137239800Y-78021300D03*
X137440400Y-118599200D03*
X139205100Y-120075600D03*
X138298300Y-82770100D03*
X130968900Y-72488400D03*
X131129200Y-101076600D03*
X130990900Y-117116600D03*
X129981600Y-101013800D03*
X124306800Y-99968500D03*
X134231900Y-111741700D03*
X129109000Y-106618800D03*
X131754000Y-114601900D03*
X123486100Y-89051100D03*
X140415100Y-87567900D03*
D18*
X125416200Y-123416200D02*
X125130200Y-123416200D01*
X126753400Y-124753400D02*
X125416200Y-123416200D01*
X117672300Y-83151100D02*
X116840000Y-83151100D01*
X118204600Y-82618800D02*
X117672300Y-83151100D01*
X118204600Y-74332100D02*
X118204600Y-82618800D01*
X121051800Y-71484900D02*
X118204600Y-74332100D01*
X125790000Y-71484900D02*
X121051800Y-71484900D01*
X126635100Y-70639800D02*
X125790000Y-71484900D01*
X126635100Y-70358000D02*
X126635100Y-70639800D01*
X127762000Y-70358000D02*
X126635100Y-70358000D01*
X116840000Y-84328000D02*
X116840000Y-83151100D01*
X139361700Y-75692000D02*
X140246900Y-76577200D01*
X135113700Y-75692000D02*
X139361700Y-75692000D01*
X132842000Y-73420300D02*
X135113700Y-75692000D01*
X132842000Y-70358000D02*
X132842000Y-73420300D01*
X136508900Y-71183200D02*
X139151700Y-73826000D01*
X136508900Y-70358000D02*
X136508900Y-71183200D01*
X135382000Y-70358000D02*
X136508900Y-70358000D01*
X137029100Y-78232000D02*
X137239800Y-78021300D01*
X135096100Y-78232000D02*
X137029100Y-78232000D01*
X133416700Y-79911400D02*
X135096100Y-78232000D01*
X133416700Y-83204900D02*
X133416700Y-79911400D01*
X129286500Y-87335100D02*
X133416700Y-83204900D01*
X129286500Y-89920400D02*
X129286500Y-87335100D01*
X128274900Y-90932000D02*
X129286500Y-89920400D01*
X119893400Y-90932000D02*
X128274900Y-90932000D01*
X116840000Y-93985400D02*
X119893400Y-90932000D01*
X116840000Y-95885000D02*
X116840000Y-93985400D01*
X137167600Y-118872000D02*
X137440400Y-118599200D01*
X135122200Y-118872000D02*
X137167600Y-118872000D01*
X128783000Y-125211200D02*
X135122200Y-118872000D01*
X128783000Y-126365500D02*
X128783000Y-125211200D01*
X122721400Y-132427100D02*
X128783000Y-126365500D01*
X121417600Y-132427100D02*
X122721400Y-132427100D01*
X121049900Y-132794800D02*
X121417600Y-132427100D01*
X121049900Y-133604000D02*
X121049900Y-132794800D01*
X119873000Y-133604000D02*
X121049900Y-133604000D01*
X137834300Y-121446400D02*
X139205100Y-120075600D01*
X135087500Y-121446400D02*
X137834300Y-121446400D01*
X131323000Y-125210900D02*
X135087500Y-121446400D01*
X131323000Y-126338100D02*
X131323000Y-125210900D01*
X124057100Y-133604000D02*
X131323000Y-126338100D01*
X122413000Y-133604000D02*
X124057100Y-133604000D01*
X116840000Y-115839000D02*
X116840000Y-114662100D01*
X137756400Y-83312000D02*
X138298300Y-82770100D01*
X135091700Y-83312000D02*
X137756400Y-83312000D01*
X129882900Y-88520800D02*
X135091700Y-83312000D01*
X129882900Y-94431100D02*
X129882900Y-88520800D01*
X128302000Y-96012000D02*
X129882900Y-94431100D01*
X119903900Y-96012000D02*
X128302000Y-96012000D01*
X118667700Y-97248200D02*
X119903900Y-96012000D01*
X118667700Y-98333000D02*
X118667700Y-97248200D01*
X115706300Y-101294400D02*
X118667700Y-98333000D01*
X115706300Y-113528400D02*
X115706300Y-101294400D01*
X116840000Y-114662100D02*
X115706300Y-113528400D01*
X141061200Y-74581900D02*
X141221100Y-74422000D01*
X137571800Y-74581900D02*
X141061200Y-74581900D01*
X137411900Y-74422000D02*
X137571800Y-74581900D01*
X135885000Y-74422000D02*
X137411900Y-74422000D01*
X142748000Y-74422000D02*
X141221100Y-74422000D01*
X135885000Y-76962000D02*
X137411900Y-76962000D01*
X142748000Y-76962000D02*
X141221100Y-76962000D01*
X137754400Y-77304500D02*
X137411900Y-76962000D01*
X140878600Y-77304500D02*
X137754400Y-77304500D01*
X141221100Y-76962000D02*
X140878600Y-77304500D01*
X141221100Y-79502000D02*
X137411900Y-79502000D01*
X142748000Y-79502000D02*
X141221100Y-79502000D01*
X135885000Y-79502000D02*
X137411900Y-79502000D01*
X135885000Y-82042000D02*
X142748000Y-82042000D01*
X135885000Y-84582000D02*
X142748000Y-84582000D01*
X142748000Y-87122000D02*
X141221100Y-87122000D01*
X135885000Y-87122000D02*
X137411900Y-87122000D01*
X137692900Y-86841000D02*
X137411900Y-87122000D01*
X140940100Y-86841000D02*
X137692900Y-86841000D01*
X141221100Y-87122000D02*
X140940100Y-86841000D01*
X135885000Y-89662000D02*
X142748000Y-89662000D01*
X135885000Y-92202000D02*
X142748000Y-92202000D01*
X135885000Y-94742000D02*
X142748000Y-94742000D01*
X135885000Y-97282000D02*
X142748000Y-97282000D01*
X135885000Y-99822000D02*
X142748000Y-99822000D01*
X142748000Y-102362000D02*
X135885000Y-102362000D01*
X135885000Y-102362000D02*
X134358100Y-102362000D01*
X120142000Y-62738000D02*
X121268900Y-62738000D01*
X119015100Y-62504500D02*
X119015100Y-62738000D01*
X118090500Y-61579900D02*
X119015100Y-62504500D01*
X117065300Y-61579900D02*
X118090500Y-61579900D01*
X116188900Y-62456300D02*
X117065300Y-61579900D01*
X116188900Y-62738000D02*
X116188900Y-62456300D01*
X115062000Y-62738000D02*
X116188900Y-62738000D01*
X120142000Y-62738000D02*
X119015100Y-62738000D01*
X137673000Y-133614000D02*
X135133000Y-133614000D01*
X127513000Y-125994000D02*
X127513000Y-125430500D01*
X127513000Y-125430500D02*
X127513000Y-124867100D01*
X119180400Y-127533600D02*
X116920000Y-129794000D01*
X125409900Y-127533600D02*
X119180400Y-127533600D01*
X127513000Y-125430500D02*
X125409900Y-127533600D01*
X130837900Y-72488400D02*
X130968900Y-72488400D01*
X128888900Y-70539400D02*
X130837900Y-72488400D01*
X128888900Y-69802900D02*
X128888900Y-70539400D01*
X122950900Y-63864900D02*
X128888900Y-69802900D01*
X122114000Y-63864900D02*
X122950900Y-63864900D01*
X121268900Y-63019800D02*
X122114000Y-63864900D01*
X121268900Y-62738000D02*
X121268900Y-63019800D01*
X130990900Y-121389200D02*
X130990900Y-117116600D01*
X127513000Y-124867100D02*
X130990900Y-121389200D01*
X133072700Y-101076600D02*
X131129200Y-101076600D01*
X134358100Y-102362000D02*
X133072700Y-101076600D01*
X142748000Y-104902000D02*
X135885000Y-104902000D01*
X133869800Y-104902000D02*
X129981600Y-101013800D01*
X135885000Y-104902000D02*
X133869800Y-104902000D01*
X135885000Y-107442000D02*
X142748000Y-107442000D01*
X142748000Y-109982000D02*
X135885000Y-109982000D01*
X125430300Y-101092000D02*
X124306800Y-99968500D01*
X128264900Y-101092000D02*
X125430300Y-101092000D01*
X134358100Y-107185200D02*
X128264900Y-101092000D01*
X134358100Y-109982000D02*
X134358100Y-107185200D01*
X135885000Y-109982000D02*
X134358100Y-109982000D01*
X135885000Y-112522000D02*
X142748000Y-112522000D01*
X142748000Y-117602000D02*
X135885000Y-117602000D01*
X134231900Y-111741700D02*
X129109000Y-106618800D01*
X140425400Y-119346300D02*
X141221100Y-120142000D01*
X138207600Y-119346300D02*
X140425400Y-119346300D01*
X137411900Y-120142000D02*
X138207600Y-119346300D01*
X135885000Y-120142000D02*
X137411900Y-120142000D01*
X142748000Y-120142000D02*
X141221100Y-120142000D01*
X135885000Y-122682000D02*
X142748000Y-122682000D01*
X120645000Y-122682000D02*
X127508000Y-122682000D01*
X127508000Y-122682000D02*
X129034900Y-122682000D01*
X129034900Y-117321000D02*
X131754000Y-114601900D01*
X129034900Y-122682000D02*
X129034900Y-117321000D01*
X120645000Y-120142000D02*
X127508000Y-120142000D01*
X120645000Y-117602000D02*
X127508000Y-117602000D01*
X120645000Y-112522000D02*
X127508000Y-112522000D01*
X120645000Y-109982000D02*
X127508000Y-109982000D01*
X120645000Y-107442000D02*
X127508000Y-107442000D01*
X120645000Y-104902000D02*
X127508000Y-104902000D01*
X125981100Y-102362000D02*
X120645000Y-102362000D01*
X127508000Y-102362000D02*
X125981100Y-102362000D01*
X120645000Y-97282000D02*
X127508000Y-97282000D01*
X120645000Y-94742000D02*
X127508000Y-94742000D01*
X120645000Y-92202000D02*
X127508000Y-92202000D01*
X125865100Y-89778000D02*
X125981100Y-89662000D01*
X122287900Y-89778000D02*
X125865100Y-89778000D01*
X122171900Y-89662000D02*
X122287900Y-89778000D01*
X120645000Y-89662000D02*
X122171900Y-89662000D01*
X127508000Y-89662000D02*
X125981100Y-89662000D01*
X137922000Y-62738000D02*
X137922000Y-63864900D01*
X131704700Y-82925300D02*
X127508000Y-87122000D01*
X131704700Y-69800500D02*
X131704700Y-82925300D01*
X137640300Y-63864900D02*
X131704700Y-69800500D01*
X137922000Y-63864900D02*
X137640300Y-63864900D01*
X125415200Y-87122000D02*
X123486100Y-89051100D01*
X127508000Y-87122000D02*
X125415200Y-87122000D01*
X120645000Y-84582000D02*
X127508000Y-84582000D01*
X120645000Y-82042000D02*
X122171900Y-82042000D01*
X125981100Y-82042000D02*
X122171900Y-82042000D01*
X127508000Y-82042000D02*
X125981100Y-82042000D01*
X120645000Y-79502000D02*
X127508000Y-79502000D01*
X120645000Y-76962000D02*
X127508000Y-76962000D01*
X120645000Y-74422000D02*
X127508000Y-74422000D01*
X135885000Y-115062000D02*
X134358100Y-115062000D01*
X116840000Y-112395000D02*
X117966900Y-112395000D01*
X119277200Y-113705300D02*
X117966900Y-112395000D01*
X133001400Y-113705300D02*
X119277200Y-113705300D01*
X134358100Y-115062000D02*
X133001400Y-113705300D01*
X114554000Y-129648100D02*
X117333000Y-132427100D01*
X114554000Y-125984000D02*
X114554000Y-129648100D01*
X117333000Y-133604000D02*
X117333000Y-132427100D01*
X140213000Y-125994000D02*
X139649600Y-125994000D01*
X120645000Y-99822000D02*
X122171900Y-99822000D01*
X140213000Y-133614000D02*
X140213000Y-133050500D01*
X141062600Y-133050500D02*
X141626100Y-133614000D01*
X140213000Y-133050500D02*
X141062600Y-133050500D01*
X142753000Y-133614000D02*
X141626100Y-133614000D01*
X135133000Y-125994000D02*
X136259900Y-125994000D01*
X126744600Y-99822000D02*
X127322100Y-99822000D01*
X126744600Y-99822000D02*
X125981100Y-99822000D01*
X127508000Y-99822000D02*
X127415100Y-99822000D01*
X127415100Y-99822000D02*
X127322100Y-99822000D01*
X139447900Y-88535100D02*
X140415100Y-87567900D01*
X134940100Y-88535100D02*
X139447900Y-88535100D01*
X133921300Y-89553900D02*
X134940100Y-88535100D01*
X133921300Y-93315800D02*
X133921300Y-89553900D01*
X127415100Y-99822000D02*
X133921300Y-93315800D01*
X119118100Y-99956900D02*
X119118100Y-99822000D01*
X116840000Y-102235000D02*
X119118100Y-99956900D01*
X120645000Y-99822000D02*
X119118100Y-99822000D01*
X122752300Y-99241600D02*
X122171900Y-99822000D01*
X125400700Y-99241600D02*
X122752300Y-99241600D01*
X125981100Y-99822000D02*
X125400700Y-99241600D01*
X136259900Y-126275800D02*
X136259900Y-125994000D01*
X137105000Y-127120900D02*
X136259900Y-126275800D01*
X139649600Y-127120900D02*
X137105000Y-127120900D01*
X139649600Y-125994000D02*
X139649600Y-127120900D01*
X132593000Y-133614000D02*
X133719900Y-133614000D01*
X133719900Y-133380500D02*
X133719900Y-133614000D01*
X134613300Y-132487100D02*
X133719900Y-133380500D01*
X139649600Y-132487100D02*
X134613300Y-132487100D01*
X139649600Y-127120900D02*
X139649600Y-132487100D01*
X139649600Y-132487100D02*
X140213000Y-133050500D01*
M02*
