M48
; DRILL file {KiCad (6.0.11)} date Fri Jun  7 20:39:23 2024
; FORMAT={-:-/ absolute / metric / decimal}
; #@! TF.CreationDate,2024-06-07T20:39:23+02:00
; #@! TF.GenerationSoftware,Kicad,Pcbnew,(6.0.11)
; #@! TF.FileFunction,Plated,1,2,PTH
FMAT,2
METRIC
; #@! TA.AperFunction,Plated,PTH,ViaDrill
T1C0.400
; #@! TA.AperFunction,Plated,PTH,ComponentDrill
T2C0.800
; #@! TA.AperFunction,Plated,PTH,ComponentDrill
T3C1.000
%
G90
G05
T1
X123.486Y-89.051
X124.307Y-99.968
X125.13Y-123.416
X126.753Y-124.753
X129.109Y-106.619
X129.982Y-101.014
X130.969Y-72.488
X130.991Y-117.117
X131.129Y-101.077
X131.754Y-114.602
X134.232Y-111.742
X137.24Y-78.021
X137.44Y-118.599
X138.298Y-82.77
X139.152Y-73.826
X139.205Y-120.076
X140.247Y-76.577
X140.415Y-87.568
T2
X114.554Y-125.984
X115.062Y-62.738
X115.062Y-70.358
X116.84Y-102.235
X116.84Y-112.395
X116.92Y-129.794
X117.602Y-62.738
X117.602Y-70.358
X120.142Y-62.738
X120.142Y-70.358
X120.645Y-74.422
X120.645Y-76.962
X120.645Y-79.502
X120.645Y-82.042
X120.645Y-84.582
X120.645Y-87.122
X120.645Y-89.662
X120.645Y-92.202
X120.645Y-94.742
X120.645Y-97.282
X120.645Y-99.822
X120.645Y-102.362
X120.645Y-104.902
X120.645Y-107.442
X120.645Y-109.982
X120.645Y-112.522
X120.645Y-115.062
X120.645Y-117.602
X120.645Y-120.142
X120.645Y-122.682
X121.92Y-129.794
X122.682Y-62.738
X122.682Y-70.358
X124.714Y-125.984
X125.222Y-62.738
X125.222Y-70.358
X127.508Y-74.422
X127.508Y-76.962
X127.508Y-79.502
X127.508Y-82.042
X127.508Y-84.582
X127.508Y-87.122
X127.508Y-89.662
X127.508Y-92.202
X127.508Y-94.742
X127.508Y-97.282
X127.508Y-99.822
X127.508Y-102.362
X127.508Y-104.902
X127.508Y-107.442
X127.508Y-109.982
X127.508Y-112.522
X127.508Y-115.062
X127.508Y-117.602
X127.508Y-120.142
X127.508Y-122.682
X127.513Y-125.994
X127.513Y-133.614
X127.762Y-62.738
X127.762Y-70.358
X130.053Y-125.994
X130.053Y-133.614
X130.302Y-62.738
X130.302Y-70.358
X132.593Y-125.994
X132.593Y-133.614
X132.842Y-62.738
X132.842Y-70.358
X135.133Y-125.994
X135.133Y-133.614
X135.382Y-62.738
X135.382Y-70.358
X135.885Y-74.422
X135.885Y-76.962
X135.885Y-79.502
X135.885Y-82.042
X135.885Y-84.582
X135.885Y-87.122
X135.885Y-89.662
X135.885Y-92.202
X135.885Y-94.742
X135.885Y-97.282
X135.885Y-99.822
X135.885Y-102.362
X135.885Y-104.902
X135.885Y-107.442
X135.885Y-109.982
X135.885Y-112.522
X135.885Y-115.062
X135.885Y-117.602
X135.885Y-120.142
X135.885Y-122.682
X137.673Y-125.994
X137.673Y-133.614
X137.922Y-62.738
X137.922Y-70.358
X140.213Y-125.994
X140.213Y-133.614
X140.462Y-62.738
X140.462Y-70.358
X142.748Y-74.422
X142.748Y-76.962
X142.748Y-79.502
X142.748Y-82.042
X142.748Y-84.582
X142.748Y-87.122
X142.748Y-89.662
X142.748Y-92.202
X142.748Y-94.742
X142.748Y-97.282
X142.748Y-99.822
X142.748Y-102.362
X142.748Y-104.902
X142.748Y-107.442
X142.748Y-109.982
X142.748Y-112.522
X142.748Y-115.062
X142.748Y-117.602
X142.748Y-120.142
X142.748Y-122.682
X142.753Y-125.994
X142.753Y-133.614
X143.002Y-62.738
X143.002Y-70.358
T3
X116.84Y-81.788
X116.84Y-84.328
X116.84Y-95.885
X116.84Y-98.425
X116.84Y-115.839
X116.84Y-118.379
X116.84Y-120.919
X117.333Y-133.604
X119.873Y-133.604
X122.413Y-133.604
T0
M30
