G04 #@! TF.GenerationSoftware,KiCad,Pcbnew,(6.0.11)*
G04 #@! TF.CreationDate,2024-06-07T20:39:17+02:00*
G04 #@! TF.ProjectId,z80-dot-gal,7a38302d-646f-4742-9d67-616c2e6b6963,rev?*
G04 #@! TF.SameCoordinates,Original*
G04 #@! TF.FileFunction,Soldermask,Bot*
G04 #@! TF.FilePolarity,Negative*
%FSLAX46Y46*%
G04 Gerber Fmt 4.6, Leading zero omitted, Abs format (unit mm)*
G04 Created by KiCad (PCBNEW (6.0.11)) date 2024-06-07 20:39:17*
%MOMM*%
%LPD*%
G01*
G04 APERTURE LIST*
%ADD10C,1.600000*%
%ADD11R,1.700000X1.700000*%
%ADD12O,1.700000X1.700000*%
%ADD13R,1.600000X1.600000*%
%ADD14O,1.600000X1.600000*%
%ADD15R,2.400000X1.600000*%
%ADD16O,2.400000X1.600000*%
G04 APERTURE END LIST*
D10*
X121920000Y-129794000D03*
X116920000Y-129794000D03*
D11*
X116840000Y-81788000D03*
D12*
X116840000Y-84328000D03*
X116840000Y-98425000D03*
D11*
X116840000Y-95885000D03*
D13*
X142753000Y-125994000D03*
D14*
X140213000Y-125994000D03*
X137673000Y-125994000D03*
X135133000Y-125994000D03*
X132593000Y-125994000D03*
X130053000Y-125994000D03*
X127513000Y-125994000D03*
X127513000Y-133614000D03*
X130053000Y-133614000D03*
X132593000Y-133614000D03*
X135133000Y-133614000D03*
X137673000Y-133614000D03*
X140213000Y-133614000D03*
X142753000Y-133614000D03*
D11*
X116840000Y-115839000D03*
D12*
X116840000Y-118379000D03*
X116840000Y-120919000D03*
X117333000Y-133604000D03*
X119873000Y-133604000D03*
D11*
X122413000Y-133604000D03*
D15*
X127508000Y-74422000D03*
D16*
X127508000Y-76962000D03*
X127508000Y-79502000D03*
X127508000Y-82042000D03*
X127508000Y-84582000D03*
X127508000Y-87122000D03*
X127508000Y-89662000D03*
X127508000Y-92202000D03*
X127508000Y-94742000D03*
X127508000Y-97282000D03*
X127508000Y-99822000D03*
X127508000Y-102362000D03*
X127508000Y-104902000D03*
X127508000Y-107442000D03*
X127508000Y-109982000D03*
X127508000Y-112522000D03*
X127508000Y-115062000D03*
X127508000Y-117602000D03*
X127508000Y-120142000D03*
X127508000Y-122682000D03*
X142748000Y-122682000D03*
X142748000Y-120142000D03*
X142748000Y-117602000D03*
X142748000Y-115062000D03*
X142748000Y-112522000D03*
X142748000Y-109982000D03*
X142748000Y-107442000D03*
X142748000Y-104902000D03*
X142748000Y-102362000D03*
X142748000Y-99822000D03*
X142748000Y-97282000D03*
X142748000Y-94742000D03*
X142748000Y-92202000D03*
X142748000Y-89662000D03*
X142748000Y-87122000D03*
X142748000Y-84582000D03*
X142748000Y-82042000D03*
X142748000Y-79502000D03*
X142748000Y-76962000D03*
X142748000Y-74422000D03*
D14*
X143002000Y-70358000D03*
X140462000Y-70358000D03*
X137922000Y-70358000D03*
X135382000Y-70358000D03*
X132842000Y-70358000D03*
X130302000Y-70358000D03*
X127762000Y-70358000D03*
X125222000Y-70358000D03*
X122682000Y-70358000D03*
X120142000Y-70358000D03*
X117602000Y-70358000D03*
X115062000Y-70358000D03*
X115062000Y-62738000D03*
X117602000Y-62738000D03*
X120142000Y-62738000D03*
X122682000Y-62738000D03*
X125222000Y-62738000D03*
X127762000Y-62738000D03*
X130302000Y-62738000D03*
X132842000Y-62738000D03*
X135382000Y-62738000D03*
X137922000Y-62738000D03*
X140462000Y-62738000D03*
D13*
X143002000Y-62738000D03*
D15*
X120645000Y-74422000D03*
D16*
X120645000Y-76962000D03*
X120645000Y-79502000D03*
X120645000Y-82042000D03*
X120645000Y-84582000D03*
X120645000Y-87122000D03*
X120645000Y-89662000D03*
X120645000Y-92202000D03*
X120645000Y-94742000D03*
X120645000Y-97282000D03*
X120645000Y-99822000D03*
X120645000Y-102362000D03*
X120645000Y-104902000D03*
X120645000Y-107442000D03*
X120645000Y-109982000D03*
X120645000Y-112522000D03*
X120645000Y-115062000D03*
X120645000Y-117602000D03*
X120645000Y-120142000D03*
X120645000Y-122682000D03*
X135885000Y-122682000D03*
X135885000Y-120142000D03*
X135885000Y-117602000D03*
X135885000Y-115062000D03*
X135885000Y-112522000D03*
X135885000Y-109982000D03*
X135885000Y-107442000D03*
X135885000Y-104902000D03*
X135885000Y-102362000D03*
X135885000Y-99822000D03*
X135885000Y-97282000D03*
X135885000Y-94742000D03*
X135885000Y-92202000D03*
X135885000Y-89662000D03*
X135885000Y-87122000D03*
X135885000Y-84582000D03*
X135885000Y-82042000D03*
X135885000Y-79502000D03*
X135885000Y-76962000D03*
X135885000Y-74422000D03*
D10*
X124714000Y-125984000D03*
D14*
X114554000Y-125984000D03*
D10*
X116840000Y-102235000D03*
D14*
X116840000Y-112395000D03*
M02*
